<?xml version="1.0" encoding="utf-8"?>
<!-- Generator: Adobe Illustrator 24.2.0, SVG Export Plug-In . SVG Version: 6.00 Build 0)  -->
<svg version="1.1" id="Layer_1" xmlns="http://www.w3.org/2000/svg" xmlns:xlink="http://www.w3.org/1999/xlink" x="0px" y="0px"
	 viewBox="0 0 281.5 50.3" style="enable-background:new 0 0 281.5 50.3;" xml:space="preserve">
<style type="text/css">
	.st0{fill:#16151A;}
	.st1{fill:#FFFFFF;}
</style>
<rect id="Background" y="0" class="st0" width="281.5" height="50.3"/>
<path id="Logo__x28_Compound_x29_" class="st1" d="M0,49.5V0h8.9L38,28.9c0.6,0.5,1.3,1.2,2,2s1.6,1.7,2.5,2.6s1.5,1.6,2.1,2.3h0.6
	c0-1-0.1-2.2-0.2-3.6c0-1.4-0.1-2.7-0.1-3.7V0h8.9v49.5h-8.5L16.1,20.3c-1.2-1.2-2.4-2.5-3.8-3.9c-1.3-1.4-2.3-2.5-3.1-3.3H8.8
	c0.1,0.7,0.1,1.9,0.1,3.4s0,3.2,0,5v28L0,49.5z M69.5,49.5V0h46.3v7.8h-37v13.5h33.8v7.8H78.8v20.3H69.5z M143.4,49.5V8.2h-22.2V0
	h53.6v8.2h-22.2v41.2H143.4z M189.8,50.3c-2.1,0-4.1-0.2-6.2-0.5c-1.8-0.3-3.4-0.9-5-1.8c-1.4-0.8-2.6-2-3.4-3.4
	c-0.9-1.6-1.3-3.4-1.2-5.2c-0.2-2.6,0.8-5.2,2.6-7.2c2-1.9,4.5-3.2,7.2-3.7c3.5-0.8,7.2-1.3,10.8-1.4c4.1-0.2,8.5-0.3,13.3-0.3v-1.9
	c0.1-1.6-0.3-3.2-1.2-4.5c-1-1.2-2.3-2-3.8-2.3c-2.3-0.5-4.7-0.7-7.1-0.7c-2.1,0-4.2,0.2-6.3,0.6c-1.4,0.2-2.8,0.8-4,1.6
	c-0.8,0.6-1.3,1.5-1.3,2.5v1h-8.4c0-0.2-0.1-0.4-0.1-0.6c0-0.2,0-0.4,0-0.7c0-2.2,0.8-4.3,2.4-5.8c2-1.9,4.4-3.2,7-3.9
	c7.4-1.8,15.1-1.8,22.5-0.1c2.6,0.6,4.9,2,6.7,4c1.6,2.2,2.4,4.9,2.2,7.6v17.4c-0.1,0.7,0.1,1.5,0.5,2.1c0.5,0.5,1.2,0.8,1.9,0.7
	h3.6v5.5c-0.9,0.3-1.7,0.6-2.6,0.8c-1.2,0.3-2.4,0.4-3.6,0.4c-1.6,0.1-3.2-0.2-4.6-0.9c-1-0.5-1.8-1.3-2.2-2.3
	c-0.4-1-0.7-2.1-0.9-3.2h-0.6c-1.4,1.4-3.1,2.6-4.9,3.5c-2,1-4.1,1.7-6.2,2.2C194.5,50.1,192.1,50.3,189.8,50.3z M191.7,43.7
	c3.7,0,7.4-0.8,10.7-2.3c1.5-0.6,2.9-1.6,4-2.8c1-1,1.5-2.4,1.5-3.8v-2.4c-5.7,0-10.4,0.2-14.1,0.5c-2.9,0.1-5.8,0.8-8.4,2
	c-1.7,0.7-2.8,2.4-2.8,4.3c-0.1,1.1,0.4,2.1,1.3,2.8c1,0.7,2.2,1.2,3.5,1.4C188.8,43.6,190.2,43.7,191.7,43.7L191.7,43.7z
	 M228.5,49.5V11.5h6.8l0.6,6.9h0.6c0.5-1.3,1.2-2.5,2.1-3.6c2.2-2.7,5.5-4.2,9-4.1c0.8,0,1.6,0.1,2.4,0.2c0.7,0.1,1.5,0.3,2.2,0.5
	v7.4h-4.3c-1.8-0.1-3.6,0.3-5.2,1.1c-1.3,0.7-2.5,1.7-3.3,2.9c-0.8,1.2-1.4,2.5-1.8,3.9c-0.4,1.4-0.6,2.8-0.6,4.2v18.6H228.5z
	 M273.5,50.3c-2,0.1-4.1-0.3-6-1c-1.6-0.7-2.8-2-3.5-3.5c-0.8-2.1-1.2-4.3-1.1-6.5V18.1h-7.2v-6.6h7.4l1.7-10.9h6.5v10.9h10.2v6.6
	h-10.2v20.1c-0.1,1.4,0.2,2.9,0.9,4.1c0.6,0.9,2,1.4,4.2,1.4h5v5.4c-0.8,0.3-1.6,0.5-2.4,0.7c-1,0.2-2,0.3-3,0.4
	C275.2,50.3,274.3,50.3,273.5,50.3z"/>
</svg>
