<?xml version="1.0" encoding="utf-8"?>
<!-- Generator: Adobe Illustrator 24.2.0, SVG Export Plug-In . SVG Version: 6.00 Build 0)  -->
<svg version="1.1" id="Layer_1" xmlns="http://www.w3.org/2000/svg" xmlns:xlink="http://www.w3.org/1999/xlink" x="0px" y="0px"
	 viewBox="0 0 80 79.8" style="enable-background:new 0 0 80 79.8;" xml:space="preserve">
<style type="text/css">
	.st0{fill:#6069F6;}
</style>
<g>
	<path class="st0" d="M38.7,3c2,0,3.5,1.6,3.5,3.5s-1.6,3.5-3.5,3.5H12.8c-3.1,0-5.7,2.6-5.7,5.7V67c0,3.1,2.6,5.7,5.7,5.7h51.5
		c3.1,0,5.7-2.6,5.7-5.7V41.3c0-2,1.6-3.5,3.5-3.5s3.5,1.6,3.5,3.5V67c0,7.1-5.7,12.8-12.8,12.8H12.8C5.9,79.8,0,74,0,67V15.7
		C0,8.7,5.7,3,12.8,3H38.7z M64.3,1l14.7,14.5c0.7,0.7,1.1,1.6,1.1,2.5c0,0.9-0.4,1.9-1,2.5L39,60.5c-0.7,0.7-1.6,1-2.5,1H22
		c-2,0-3.5-1.6-3.5-3.5V43.3c0-0.9,0.4-1.8,1-2.5L59.3,1C60.6-0.3,62.9-0.3,64.3,1z M61.8,8.5L25.6,44.8v9.7h9.5l36.4-36.4L61.8,8.5
		z"/>
</g>
</svg>
