<?xml version="1.0" encoding="utf-8"?>
<!-- Generator: Adobe Illustrator 24.2.0, SVG Export Plug-In . SVG Version: 6.00 Build 0)  -->
<svg version="1.1" id="Layer_1" xmlns="http://www.w3.org/2000/svg" xmlns:xlink="http://www.w3.org/1999/xlink" x="0px" y="0px"
	 viewBox="0 0 24 24" style="enable-background:new 0 0 24 24;" xml:space="preserve">
<style type="text/css">
	.st0{fill:#BDBDBD;}
</style>
<path class="st0" d="M20.5,7.8c0,0.2,0,0.4,0,0.5c0,1.1-0.2,2.3-0.5,3.4c-1.4,5.2-6.1,8.7-11.5,8.6c-2.3,0-4.5-0.7-6.5-1.9
	c0.3,0,0.7,0.1,1,0.1c1.9,0,3.7-0.6,5.2-1.8c-1.8,0-3.4-1.2-3.9-2.9c0.3,0,0.5,0.1,0.8,0.1c0.4,0,0.8-0.1,1.1-0.2
	C4.4,13.3,3,11.8,2.9,9.9c0-0.1,0-0.2,0-0.3V9.5C3.4,9.8,4.1,10,4.8,10C3.6,9.3,2.9,7.9,2.9,6.5c0-0.7,0.2-1.5,0.6-2.1
	c2.1,2.6,5.3,4.2,8.7,4.4c-0.5-2.3,0.9-4.5,3.1-5.1c1.5-0.3,3,0.1,4,1.2c0.9-0.2,1.9-0.5,2.7-1C22.1,5.4,21.5,6.8,20.5,7.8z"/>
</svg>
