<?xml version="1.0" encoding="utf-8"?>
<!-- Generator: Adobe Illustrator 24.2.0, SVG Export Plug-In . SVG Version: 6.00 Build 0)  -->
<svg version="1.1" id="Layer_1" xmlns="http://www.w3.org/2000/svg" xmlns:xlink="http://www.w3.org/1999/xlink" x="0px" y="0px"
	 viewBox="0 0 100 81.7" style="enable-background:new 0 0 100 81.7;" xml:space="preserve">
<path d="M98.7,68.5c0-2.5-0.7-5-2.1-7.1L61.2,6.1C58.7,2.3,54.6,0,50,0c-4.5,0-8.7,2.3-11.2,6.1L3.4,61.3c-2.6,4.1-2.8,9.3-0.5,13.5
	c2.3,4.3,6.8,6.9,11.6,6.9h70.9c4.9,0,9.3-2.6,11.6-6.9C98.1,72.9,98.7,70.7,98.7,68.5z M91.7,72c-1.3,2.3-3.7,3.7-6.3,3.7H14.6
	c-2.6,0-5.1-1.4-6.3-3.7c-1.3-2.3-1.2-5.1,0.2-7.3L44,9.4c1.3-2.1,3.6-3.3,6.1-3.3s4.7,1.2,6.1,3.3l35.4,55.3
	c0.7,1.1,1.1,2.5,1.1,3.9C92.6,69.7,92.3,70.9,91.7,72z"/>
<rect x="46.3" y="57.2" width="7.3" height="7.7"/>
<rect x="46.3" y="25.8" width="7.3" height="24.9"/>
</svg>
