<?xml version="1.0" encoding="utf-8"?>
<!-- Generator: Adobe Illustrator 24.2.0, SVG Export Plug-In . SVG Version: 6.00 Build 0)  -->
<svg version="1.1" id="Layer_1" xmlns="http://www.w3.org/2000/svg" xmlns:xlink="http://www.w3.org/1999/xlink" x="0px" y="0px"
	 viewBox="0 0 81.4 81.4" style="enable-background:new 0 0 81.4 81.4;" xml:space="preserve">
<style type="text/css">
	.st0{fill:#FFFFFF;}
</style>
<g>
	<path class="st0" d="M14.1,15.1H4.6C2,15.1,0,17.2,0,19.7v57.1c0,2.6,2.1,4.6,4.6,4.6h57.1c2.6,0,4.6-2.1,4.6-4.6v-9.5
		c0-0.6,0.5-1,1-1h9.5c2.6,0,4.6-2.1,4.6-4.6V4.6C81.4,2,79.3,0,76.8,0H19.7c-2.6,0-4.6,2.1-4.6,4.6v9.5
		C15.1,14.6,14.6,15.1,14.1,15.1z M57.3,73.4H9c-0.6,0-1-0.5-1-1V24.1c0-0.6,0.5-1,1-1h5.2c0.6,0,1,0.5,1,1v41.2c0,0.6,0.5,1,1,1
		h41.1c0.6,0,1,0.5,1,1v5.1C58.3,72.9,57.8,73.4,57.3,73.4z M24.1,8h48.3c0.6,0,1,0.5,1,1v48.3c0,0.6-0.5,1-1,1H24.1
		c-0.6,0-1-0.5-1-1V9C23.1,8.5,23.6,8,24.1,8z"/>
	<path class="st0" d="M33,29.1h30.5c0.6,0,1,0.5,1,1v6c0,0.6-0.5,1-1,1H33c-0.6,0-1-0.5-1-1v-6C32,29.6,32.5,29.1,33,29.1z"/>
	<path class="st0" d="M33,17.5h18.8c0.6,0,1,0.5,1,1v6c0,0.6-0.5,1-1,1H33c-0.6,0-1-0.5-1-1v-6C32,18,32.5,17.5,33,17.5z"/>
	<path class="st0" d="M33,40.8h30.5c0.6,0,1,0.5,1,1v6c0,0.6-0.5,1-1,1H33c-0.6,0-1-0.5-1-1v-6C32,41.3,32.5,40.8,33,40.8z"/>
</g>
</svg>
